HIERARCHY
ROOT ui
{
	 OFFSET 0 0 0
	 CHANNELS 3 XPosition YPosition Z Position
	 EndSite
	 {
	 OFFSET 0 -1 0
	 }
}
ROOT li
{
	 OFFSET 0 0 0
	 CHANNELS 3 XPosition YPosition Z Position
	 EndSite
	 {
	 OFFSET 0 -1 0
	 }
}
ROOT ul
{
	 OFFSET 0 0 0
	 CHANNELS 3 XPosition YPosition Z Position
	 EndSite
	 {
	 OFFSET 0 -1 0
	 }
}
ROOT ll
{
	 OFFSET 0 0 0
	 CHANNELS 3 XPosition YPosition Z Position
	 EndSite
	 {
	 OFFSET 0 -1 0
	 }
}
ROOT tt
{
	 OFFSET 0 0 0
	 CHANNELS 3 XPosition YPosition Z Position
	 EndSite
	 {
	 OFFSET 0 -1 0
	 }
}
ROOT tb
{
	 OFFSET 0 0 0
	 CHANNELS 3 XPosition YPosition Z Position
	 EndSite
	 {
	 OFFSET 0 -1 0
	 }
}
ROOT td
{
	 OFFSET 0 0 0
	 CHANNELS 3 XPosition YPosition Z Position
	 EndSite
	 {
	 OFFSET 0 -1 0
	 }
}
ROOT v
{
	 OFFSET 0 0 0
	 CHANNELS 3 XPosition YPosition Z Position
	 EndSite
	 {
	 OFFSET 0 -1 0
	 }
}
ROOT bn
{
	 OFFSET 0 0 0
	 CHANNELS 3 XPosition YPosition Z Position
	 EndSite
	 {
	 OFFSET 0 -1 0
	 }
}
MOTION
Frames: 32
Frame Time: 0.002
-0.002707319974899292	0.0014501160383224487	0		0.5165517578125	-2.388474365234375	0		-0.9536669921875	0.06690054321289063	0		-0.739402099609375	-2.374439453125	0		1.46178515625	-0.748532958984375	0		3.23221728515625	-0.1959075927734375	0		4.72605712890625	-0.10928819274902343	0		5.63208642578125	0.10213190460205078	0		0.010616644859313965	6.01721728515625	0		
0.027386030197143554	-0.004098598003387451	0		0.4867017517089844	-2.387932373046875	0		-1.0304442138671874	0.06933309173583985	0		-0.8023013305664063	-2.37626708984375	0		1.4640343017578126	-0.744596923828125	0		3.225552001953125	-0.1878404998779297	0		4.73420703125	-0.11152305603027343	0		5.61642822265625	0.11031878662109375	0		0.14232086181640624	6.0378095703125	0		
0.0036402029991149903	3.525809943675995E-4	0		0.49876052856445313	-2.3921494140625	0		-1.027211669921875	0.07230709075927734	0		-0.7912605590820313	-2.38144287109375	0		1.465252685546875	-0.7416304931640625	0		3.235447998046875	-0.20306765747070313	0		4.72852978515625	-0.10348689270019532	0		5.62144091796875	0.10114002990722656	0		-0.00575612211227417	6.01954150390625	0		
0.00994298267364502	0.00726102876663208	0		0.4651976318359375	-2.3755146484375	0		-1.0188896484375	0.08019493865966797	0		-0.7860137939453125	-2.375503173828125	0		1.4674708251953126	-0.7386709594726563	0		3.262314208984375	-0.16558355712890624	0		4.7366650390625	-0.10568866729736329	0		5.62474560546875	0.10801451873779297	0		-0.006485395908355713	6.019580078125	0		
0.0019981729984283447	4.363040030002594E-4	0		0.5161922607421875	-2.384431396484375	0		-0.9587714233398438	0.07613190460205078	0		-0.7767359619140625	-2.368632568359375	0		1.4615340576171876	-0.7445523681640625	0		3.2289296875	-0.19598802185058595	0		4.726884765625	-0.10354193115234375	0		5.61396826171875	0.11016766357421875	0		-0.010165653228759765	6.02268017578125	0		
0.0030481719970703123	-0.007549153804779053	0		0.4604289855957031	-2.38037451171875	0		-1.033707763671875	0.06955628967285156	0		-0.7697491455078125	-2.3787197265625	0		1.4607237548828125	-0.7445179443359375	0		3.2174033203125	-0.1807724609375	0		4.721248046875	-0.09445187377929687	0		5.6090205078125	0.10223271179199218	0		0.14038383483886718	6.03694677734375	0		
-0.004510636806488037	0.0046300158500671386	0		0.511491943359375	-2.388282470703125	0		-1.0344881591796875	0.0696164779663086	0		-0.817356201171875	-2.36779736328125	0		1.41896240234375	-0.7427216796875	0		3.2273427734375	-0.19594493103027344	0		4.721189453125	-0.10945162200927734	0		5.61238720703125	0.1101669921875	0		0.006266298770904541	6.0174521484375	0		
-0.003411890983581543	-0.003353041887283325	0		0.4588645935058594	-2.380275634765625	0		-1.031186767578125	0.07259972381591796	0		-0.75842626953125	-2.384843994140625	0		1.4612347412109374	-0.7414689331054688	0		3.23186376953125	-0.18100297546386718	0		4.73350732421875	-0.10566251373291016	0		5.61746728515625	0.10108294677734375	0		0.021723751068115235	6.0272080078125	0		
0.02984400749206543	-0.004928709030151367	0		0.5130735473632813	-2.3842392578125	0		-0.9477916870117188	0.07810398864746093	0		-0.803905517578125	-2.3709638671875	0		1.419556640625	-0.7386668701171875	0		3.22586767578125	-0.1958663787841797	0		4.72210205078125	-0.08842490386962891	0		5.61606103515625	0.11813381195068359	0		-0.012084506034851073	6.02186767578125	0		
-0.006665335178375244	0.0047810769081115725	0		0.48644866943359377	-2.38071337890625	0		-0.9566005859375	0.07130171966552734	0		-0.7825753784179688	-2.37032080078125	0		1.45983056640625	-0.7413763427734374	0		3.233553466796875	-0.17597381591796876	0		4.72314404296875	-0.10341783142089844	0		5.63022998046875	0.10989886474609376	0		0.005128674983978272	6.0155849609375	0		
-0.002379862070083618	7.332950234413147E-4	0		0.5086742248535157	-2.3880927734375	0		-0.9672203979492188	0.07253020477294922	0		-0.7733660278320312	-2.37845947265625	0		1.4571351318359376	-0.7442962036132813	0		3.23467333984375	-0.18896688842773438	0		4.72250390625	-0.10337722778320313	0		5.619591796875	0.11012320709228515	0		0.003529700994491577	6.017646484375	0		
-0.006049740791320801	-0.0031723060607910156	0		0.45417745971679685	-2.38206005859375	0		-1.0378787841796875	0.0698602294921875	0		-0.7400620727539062	-2.38404638671875	0		1.4565379638671876	-0.7442586669921875	0		3.213227783203125	-0.18054469299316406	0		4.7219072265625	-0.1033416748046875	0		5.6189951171875	0.11015821838378906	0		0.0029366939067840578	6.01768505859375	0		
0.019394628524780272	-0.0036196749210357666	0		0.484655029296875	-2.3806005859375	0		-1.0343753662109374	0.07281912994384766	0		-0.7985693969726563	-2.38094482421875	0		1.417084716796875	-0.7385103759765625	0		3.22826806640625	-0.20280778503417968	0		4.70421142578125	-0.11100059509277344	0		5.60844580078125	0.11036782836914062	0		-0.012567973136901856	6.0199931640625	0		
0.008002981185913086	0.0026066410541534424	0		0.486181884765625	-2.3786142578125	0		-1.0257332763671876	0.08067881774902344	0		-0.7601041259765625	-2.38263720703125	0		1.4636630859375	-0.7343565063476563	0		3.239462158203125	-0.16499998474121094	0		4.72908984375	-0.09045146179199219	0		5.6179033203125	0.10819532775878907	0		-0.013058094024658204	6.020017578125	0		
0.021487625122070312	-6.34302020072937E-4	0		0.4836784057617188	-2.380562255859375	0		-1.035336669921875	0.07286689758300781	0		-0.8114517211914063	-2.375677978515625	0		1.457074462890625	-0.741233642578125	0		3.21658349609375	-0.18758625793457032	0		4.71556005859375	-0.09421273040771484	0		5.607484375	0.11037425231933594	0		-0.031636760711669924	6.01236767578125	0		
-0.004904458045959473	8.535190224647522E-4	0		0.5071535949707031	-2.385998291015625	0		-0.9638372192382813	0.06755381774902344	0		-0.7518719482421875	-2.37577197265625	0		1.454600341796875	-0.7441959838867187	0		3.214407470703125	-0.17456137084960938	0		4.71514453125	-0.09423104858398437	0		5.60292333984375	0.10242601013183594	0		0.0010875500440597535	6.0177666015625	0		
-0.003430881977081299	-0.007182138919830322	0		0.45182199096679687	-2.38198779296875	0		-1.040183837890625	0.0699632339477539	0		-0.8064989624023438	-2.387767822265625	0		1.45421630859375	-0.7442070922851562	0		3.221638916015625	-0.19572967529296875	0		4.7195986328125	-0.1033572998046875	0		5.60669287109375	0.11030864715576172	0		0.0017171549797058107	6.01574853515625	0		
-0.005631793022155762	8.445990085601807E-4	0		0.45348773193359376	-2.3800380859375	0		-1.036477294921875	0.07288960266113281	0		-0.7658399047851563	-2.3865263671875	0		1.41495947265625	-0.7385101318359375	0		3.220694580078125	-0.17375352478027345	0		4.72337744140625	-0.09648470306396484	0		5.6063447265625	0.11024811553955079	0		-0.01646244239807129	6.02207080078125	0		
-0.01088247013092041	0.004919232845306397	0		0.456228515625	-2.375116455078125	0		-1.02765576171875	0.08071601867675782	0		-0.8109432373046875	-2.372706298828125	0		1.4586370849609376	-0.73835546875	0		3.22507080078125	-0.1898949432373047	0		4.7271611328125	-0.09062757873535156	0		5.61116748046875	0.11807691955566406	0		0.016382160186767577	6.027443359375	0		
-0.0013570590019226073	-0.004288763999938965	0		0.5056997985839844	-2.3860693359375	0		-0.9611206665039063	0.07146644592285156	0		-0.779413330078125	-2.3803115234375	0		1.4143106689453124	-0.7385844116210938	0		3.245017333984375	-0.17633088684082032	0		4.7186142578125	-0.10355947875976562	0		5.61571337890625	0.10989315795898437	0		9.292569756507873E-4	6.01569775390625	0		
-0.006554428100585937	7.708150148391723E-4	0		0.4794190673828125	-2.38362744140625	0		-0.9614103393554687	0.07144706726074218	0		-0.7895857543945313	-2.372149658203125	0		1.4529110107421874	-0.7443557739257812	0		3.22270947265625	-0.1769987030029297	0		4.722451171875	-0.0967291259765625	0		5.61542431640625	0.1097868423461914	0		-2.4471700191497803E-4	6.01768359375	0		
-0.014810722351074218	0.0018799129724502562	0		0.5019756164550782	-2.39109765625	0		-0.9657589111328125	0.06749647521972656	0		-0.7722318115234375	-2.390507568359375	0		1.454679443359375	-0.7414528198242187	0		3.225356201171875	-0.1811380615234375	0		4.718044921875	-0.10375959014892579	0		5.6051513671875	0.10985363006591797	0		0.014765275955200195	6.028365234375	0		
-0.0021854050159454347	-0.00440499210357666	0		0.4607227783203125	-2.38839111328125	0		-1.0287860107421876	0.08063079833984375	0		-0.7674555053710937	-2.386634765625	0		1.4544071044921876	-0.741519775390625	0		3.227017822265625	-0.18526777648925782	0		4.69891455078125	-0.0965243377685547	0		5.61072412109375	0.10061520385742187	0		0.0023179221153259277	6.01354443359375	0		
0.030694116592407228	0.0019308259487152099	0		0.5085812072753906	-2.3813408203125	0		-1.029029296875	0.0805957260131836	0		-0.802638427734375	-2.381025634765625	0		1.422379150390625	-0.7290020751953125	0		3.252136962890625	-0.16583602905273437	0		4.725775390625	-0.09115013885498047	0		5.60979638671875	0.11749256896972657	0		0.017368234634399415	6.02421337890625	0		
-0.012487704277038575	0.004671895980834961	0		0.4533630065917969	-2.378384765625	0		-1.0333280029296874	0.07663108062744141	0		-0.7429135131835938	-2.3821826171875	0		1.4539127197265624	-0.7416730346679687	0		3.2216904296875	-0.1773857879638672	0		4.71558642578125	-0.0890972900390625	0		5.60442431640625	0.10944007873535157	0		-8.877840042114258E-4	6.0174921875	0		
0.023130054473876952	-0.005055857181549072	0		0.5029385375976563	-2.38838037109375	0		-1.0426640625	0.06975598907470704	0		-0.8191305541992188	-2.3798193359375	0		1.45369140625	-0.7417581176757813	0		3.211517333984375	-0.17531495666503907	0		4.71226513671875	-0.09518006134033204	0		5.60421728515625	0.10928569030761719	0		-0.033120681762695316	6.01102734375	0		
-0.007965900897979737	4.5429599285125733E-4	0		0.44675015258789064	-2.3854130859375	0		-0.9668888549804687	0.06729595947265625	0		-0.7834090576171875	-2.3825390625	0		1.4534844970703125	-0.7418480834960938	0		3.211320068359375	-0.17543515014648436	0		4.7120693359375	-0.09532605743408203	0		5.60402490234375	0.10912435913085937	0		-0.001086927056312561	6.01736669921875	0		
-0.008149355888366698	3.856549859046936E-4	0		0.4775570373535156	-2.38406689453125	0		-1.03391064453125	0.07648957824707031	0		-0.8076856689453125	-2.385147216796875	0		1.4123323974609374	-0.739179443359375	0		3.222261962890625	-0.16876576232910157	0		4.7249560546875	-0.09171949768066406	0		5.60382470703125	0.10795821380615235	0		-0.01808826446533203	6.02161376953125	0		
-0.008325929641723634	3.1386399269104005E-4	0		0.4524369812011719	-2.378682373046875	0		-0.955043701171875	0.07796324157714844	0		-0.7689286499023438	-2.386931640625	0		1.4592281494140624	-0.7351520385742187	0		3.2209150390625	-0.17787286376953124	0		4.71892822265625	-0.08376222229003906	0		5.6136669921875	0.10860354614257813	0		0.01494465446472168	6.02692626953125	0		
-0.008497913360595704	2.3953700065612794E-4	0		0.47712838745117186	-2.3842294921875	0		-1.034256591796875	0.07637791442871093	0		-0.8179821166992187	-2.3780810546875	0		1.45291455078125	-0.7421373291015625	0		3.230868896484375	-0.17118783569335938	0		4.7146435546875	-0.0898384780883789	0		5.60349853515625	0.1086234359741211	0		-3.495869934558868E-4	6.01513330078125	0		
-0.008665515899658202	1.6321499645709992E-4	0		0.5018459167480469	-2.38877880859375	0		-0.9675840454101563	0.06706819915771485	0		-0.7483283081054688	-2.3864501953125	0		1.45273583984375	-0.7422356567382813	0		3.21470166015625	-0.17101432800292968	0		4.72032421875	-0.0980964126586914	0		5.6233291015625	0.10808950805664062	0		-0.0013892250061035157	6.0170751953125	0		
-0.008826810836791993	8.537500351667404E-5	0		0.47265850830078127	-2.38832177734375	0		-1.0396572265625	0.07234663391113282	0		-0.8224518432617187	-2.38213720703125	0		1.411609375	-0.7395673217773437	0		3.2104453125	-0.17605868530273439	0		4.71431201171875	-0.09012535095214844	0		5.60317236328125	0.10831159210205078	0		-0.0014719599485397339	6.0169970703125	0		
